<svg width="106" height="37" fill="none" xmlns="http://www.w3.org/2000/svg"><path d="M16.366 22.972c-.136-.932-.84-1.381-1.521-1.839-.693-.466-1.41-.904-1.923-1.579-.728-.953-1.008-2.009-.503-3.143.723-1.623 2.945-2.08 4.382-.875.437.365.714.433 1.244.187 1.15-.54 2.358-.209 3.23.777 1.163 1.313 1.464 2.846.962 4.49-.799 2.6-2.505 4.392-5.148 5.147-1.79.512-3.553.233-5.186-.674-2.638-1.468-4.366-3.645-4.893-6.629C6.244 14.5 8.06 10.426 12.3 8.46c4.191-1.944 8.247-1.49 11.91 1.338 2.186 1.687 3.348 4.048 3.512 6.791.285 4.793-1.93 8.249-6.029 10.599-1.382.793-2.917 1.175-4.45 1.56-.923.233-1.85.455-2.735.817a3.672 3.672 0 00-.853.48c-.16.124-.288.273-.367.46-.065.157-.081.303.074.425.163.128.228-.038.318-.105 1.105-.81 2.363-1.24 3.697-1.482.837-.151 1.679-.205 2.515 0 .354.087.677.236.938.493.679.666.535 1.671-.315 2.191-.585.357-1.24.53-1.905.647-1.624.282-3.243.293-4.843-.168-.128-.038-.169.006-.204.128-.057.186-.014.354.046.52.068.186.182.349.31.503.41.493.461.496 1 .195 1.154-.644 2.376-.95 3.694-.642.551.13 1.008.425 1.285.937.318.588.155 1.059-.46 1.333-.545.243-1.132.29-1.719.298-1.087.013-2.14-.147-3.132-.607-.139-.065-.215-.033-.31.057-.331.306-.489.666-.358 1.118a.392.392 0 01.013.23c-.464-.474-.532-.996-.184-1.605.09-.157.07-.217-.068-.325-.62-.502-1.111-1.084-1.111-1.937 0-.641-.006-.633-.348-1.164-.424-.655-.307-1.305.081-1.925.424-.672 1.084-1.06 1.78-1.398 1.146-.555 2.363-.918 3.57-1.305 1.95-.628 3.702-1.581 5.153-3.038 1.695-1.703 2.632-3.748 2.654-6.163a7.44 7.44 0 00-5.13-7.163c-2.8-.918-5.503-.715-7.943 1.051-1.822 1.322-2.817 3.166-3.172 5.378-.58 3.596 1.803 6.737 4.237 7.972 1.473.747 2.964.726 4.404-.043 1.972-1.056 3.083-2.727 3.255-4.959.078-1.004-.313-1.882-.998-2.618-.5-.539-1.179-.663-1.852-.38-.158.069-.174.12-.1.274.284.596.418 1.213.206 1.869-.28.86-1.033 1.346-1.815 1.162-.714-.169-1.133-.786-1.027-1.512.103-.709.443-1.305.908-1.835.122-.139.133-.22-.011-.35-.503-.455-1.076-.717-1.763-.628-1.185.154-1.829 1.186-1.516 2.388.19.732.64 1.284 1.187 1.777.434.392.888.763 1.31 1.17.453.436.793.942.757 1.613a.23.23 0 00-.03.09zm-1.314 8.378c1.518.06 3.015-.027 4.455-.585-1.554-.344-3.021-.016-4.456.585zm2.195-13.735c-.384.347-.658.737-.78 1.222-.046.184-.03.355.163.463.182.103.358.105.53-.02.16-.116.247-.278.306-.46.14-.43-.016-.806-.22-1.204zM15.507 34.6c1.088.246 2.106.232 3.136-.044-.375-.46-2.252-.363-3.135.044zM54.54 15.77c.046-.644.105-1.29.138-1.94.171-3.424.198-6.849.188-10.277 0-.19.054-.314.203-.425.652-.482 1.359-.439 2.032-.12.921.44 1.451 1.19 1.46 2.235.01 1.113-.175 2.21-.37 3.3-.318 1.769-.419 3.556-.492 5.346-.098 2.402-.206 4.804-.295 7.208-.085 2.245-.215 4.49-.204 6.737.008 1.734.08 3.464.526 5.154.068.257.14.52.256.755.098.2.067.339-.057.504-.41.56-1.02.74-1.658.46a2.94 2.94 0 01-1.233-.999 1.302 1.302 0 01-.25-.745c-.016-.509-.079-1.018-.128-1.6-.426.458-.803.858-1.224 1.216-.794.677-1.647 1.267-2.693 1.451-2.124.374-4.585-.365-5.935-2.81-.655-1.187-.949-2.47-.995-3.81-.125-3.697.677-7.206 2.22-10.556.399-.866.924-1.665 1.64-2.313 1.34-1.213 2.937-1.394 4.542-.546.813.427 1.449 1.072 2.128 1.665.043.038.092.073.138.108 0 .008.014.003.063.003zm-.071 6.137c.022-.715-.02-1.427-.207-2.12-.271-1.008-.684-1.945-1.512-2.632-1.033-.859-2.326-.75-3.206.249a4.45 4.45 0 00-.715 1.088c-1.301 2.892-1.99 5.914-1.917 9.09.022.948.2 1.87.602 2.733.405.864.998 1.506 2.035 1.546.807.033 1.497-.254 2.084-.796.557-.512.954-1.14 1.26-1.82 1.057-2.331 1.524-4.79 1.576-7.338zm47.512 10.737c-1.046.663-2.11 1.132-3.274 1.357-2.681.522-5.087-.054-7.1-1.915-1.329-1.23-1.435-3-.367-4.465.856-1.175 2.04-1.953 3.3-2.63a7.14 7.14 0 013.608-.863c1.136.027 2.271-.009 3.404.016.337.008.378-.154.38-.404a22.29 22.29 0 00-.101-2.49c-.078-.802-.197-1.59-.497-2.343-.502-1.265-1.415-1.91-2.678-1.874-.82.022-1.459.436-1.986 1.015-1.032 1.13-1.744 2.424-1.936 3.962-.04.303-.022.612-.028.92-.011.518-.372.821-.885.74-.922-.146-1.832-1.208-1.723-2.12.258-2.188 1.044-4.179 2.462-5.882.847-1.018 2.004-1.386 3.328-1.332 2.115.09 3.908.907 5.403 2.372 1.097 1.078 1.635 2.4 1.637 3.948.006 2.803.041 5.608.066 8.41.014 1.547.035 3.09.049 4.637.005.5-.209.799-.693.948-.47.146-.938.121-1.408-.028-.486-.154-1.023-.834-.961-1.397.016-.173 0-.352 0-.582zm-4.95-1.032c1.522-.021 2.812-.604 3.912-1.627.533-.493.845-1.11.962-1.828.16-.986-.195-1.565-1.19-1.728-1.815-.295-3.559-.048-5.191.824-.527.281-.964.677-1.2 1.234-.492 1.167-.261 2.202.974 2.768a3.906 3.906 0 001.734.357zm-10.998 1.03c-1.046.666-2.114 1.126-3.273 1.362-2.497.5-4.768-.006-6.756-1.59-1.731-1.378-1.93-3.469-.454-5.115 1.442-1.611 3.23-2.7 5.395-3.098.29-.054.595-.062.891-.062 1.226-.006 2.45-.003 3.673-.003.468 0 .468 0 .473-.485a21.71 21.71 0 00-.13-2.697c-.088-.766-.248-1.519-.55-2.24-.758-1.797-2.956-2.274-4.349-.893-1.364 1.351-2.244 2.952-2.187 4.929.028.88-.64 1.102-1.295.799-.97-.447-1.454-1.287-1.288-2.354.296-1.917 1.007-3.677 2.17-5.234.875-1.173 2.082-1.682 3.553-1.622 1.994.079 3.706.812 5.176 2.128 1.247 1.119 1.89 2.508 1.896 4.195.008 2.873.04 5.746.065 8.62.013 1.464.036 2.932.05 4.397.005.563-.281.904-.838 1.018-.477.097-.956.09-1.396-.136-.527-.268-.804-.709-.82-1.302-.011-.19-.006-.376-.006-.617zm-4.976-1.03c1.567-.021 2.888-.622 4.004-1.694.415-.399.685-.891.83-1.45.32-1.22-.064-1.908-1.278-2.074-1.72-.235-3.386-.005-4.945.802-.465.241-.871.558-1.144 1.013-.6.994-.657 2.41.856 3.065.536.23 1.092.347 1.677.339zM66.63 34.136c-1.784-.021-3.08-.29-4.194-1.14-1.144-.872-1.739-2.082-2.078-3.436-.408-1.633-.44-3.293-.288-4.956a24.496 24.496 0 011.714-7.091c.334-.818.753-1.59 1.31-2.283.986-1.224 2.235-1.6 3.748-1.203 1.543.407 2.8 1.287 3.97 2.321.768.682 1.444 1.443 1.906 2.375.695 1.403.574 2.827.046 4.232-1.023 2.738-4.112 4.84-7.046 4.842-.427 0-.788-.179-1.155-.35-.377-.173-.74-.384-1.14-.503-.237-.07-.324-.014-.313.241.043 1.013.13 2.017.592 2.944.47.947 1.225 1.421 2.309 1.43 1.413.008 2.549-.578 3.545-1.512.612-.574 1.111-1.24 1.624-1.895.104-.133.22-.258.327-.385.344-.411.75-.642 1.307-.441.537.192.795.59.872 1.134.154 1.116-.231 2.075-1.006 2.833-1.787 1.747-3.934 2.732-6.05 2.843zm-.459-8.96c.837 0 1.5-.241 2.13-.777 1.904-1.622 2.14-4.788.495-6.667-.289-.328-.628-.574-1.049-.702-1.006-.303-1.975.038-2.67 1.013a7.495 7.495 0 00-1.418 4.769c.051 1.386 1.13 2.364 2.512 2.364zm-24.677-8.948c-.062 1.038-.323 1.964-.521 2.903a9.715 9.715 0 00-.228 2.002c.008 3.021.01 6.044 0 9.066-.003.91.173 1.787.385 2.664.12.493-.195.97-.706.997-1.383.067-2.643-.504-2.649-2.33-.013-5.418-.005-10.836-.008-16.258 0-.17.052-.257.201-.338 1.127-.606 2.165-.368 3.17.36.34.239.413.61.356.934zm-1.708-9.22c1.717 0 2.896 1.473 2.472 3.095-.198.758-.717 1.14-1.635 1.203-1.187.08-2.502-.924-2.684-2.091-.169-1.08.258-2.193 1.847-2.207zM11.083.98c.198.011.41.125.535.363.587 1.146 1.109 2.315 1.443 3.561.04.152.046.311.073.469.022.132.033.268-.108.335-.142.068-.253-.027-.343-.119-.179-.184-.372-.36-.519-.571a19.985 19.985 0 01-1.77-3.014c-.242-.506.083-1.032.69-1.024zM3.204 6.69a.578.578 0 01.391.118C4.894 7.718 6.2 8.62 7.36 9.706c.106.1.315.203.215.376-.109.187-.304.057-.454 0-1.51-.558-2.906-1.346-4.308-2.12-.274-.152-.372-.506-.272-.81.09-.27.364-.46.663-.463zM22.822.97c.505 0 .86.498.635.95-.66 1.322-1.434 2.575-2.388 3.713-.076.09-.163.154-.282.1-.16-.073-.114-.217-.087-.339.2-.888.51-1.743.853-2.586.195-.484.413-.96.63-1.438a.654.654 0 01.639-.4zm7.151 5.578c.354 0 .57.149.688.433.125.309.046.607-.242.815-.337.247-.685.477-1.035.7-.856.535-1.695 1.104-2.616 1.526a2.845 2.845 0 01-.247.106c-.09.032-.19.1-.267-.014-.065-.094-.019-.19.038-.273.212-.3.462-.572.726-.826a46.548 46.548 0 012.415-2.21c.166-.14.337-.276.54-.257zm.038 10.732c-.07-.003-.139-.009-.21-.011-.094 0-.178-.02-.22-.117-.043-.105-.002-.192.069-.268.18-.19.386-.341.617-.46 1.01-.526 2.045-1 3.124-1.376.491-.17.899.12.858.598-.016.19-.095.36-.269.434a17.387 17.387 0 01-3.969 1.2zm-26.625-.44c-.959-.05-1.76-.11-2.556-.232-.377-.057-.598-.236-.633-.523-.049-.39.234-.728.625-.688 1.176.125 2.333.35 3.466.693.15.047.283.141.424.214.103.055.177.13.152.26-.022.114-.117.147-.212.18-.467.159-.948.097-1.266.097z" fill="#141820"/><path d="M15.051 31.35c1.435-.602 2.902-.93 4.455-.585-1.44.555-2.936.644-4.455.585zm2.195-13.735c.204.395.362.772.218 1.205-.06.181-.147.347-.307.46-.174.125-.348.125-.53.02-.19-.109-.21-.282-.163-.464.125-.484.4-.874.782-1.221zM15.508 34.6c.882-.407 2.76-.502 3.134-.044-1.03.276-2.048.287-3.134.043z" fill="#141820"/></svg>