<svg width="111" height="37" fill="none" xmlns="http://www.w3.org/2000/svg"><path d="M21.555.997l-.705 2.301a6350.662 6350.662 0 01-3.59 11.684c-.065.215-.054.275.194.302 1.273.142 2.541.308 3.812.458.145.016.23.07.306.193.953 1.574 1.907 3.151 2.874 4.717.115.185 0 .27-.088.379l-5.22 6.52c-2.334 2.91-4.665 5.825-7 8.736-.082.104-.14.243-.334.289.131-.428.252-.825.377-1.223 1.339-4.308 2.675-8.614 4.022-12.92.074-.231.05-.291-.2-.319-1.243-.138-2.48-.302-3.72-.446-.197-.022-.318-.085-.424-.262a529.914 529.914 0 00-2.798-4.591c-.104-.17-.098-.273.03-.436C13.16 11.327 17.22 6.272 21.28 1.215c.069-.085.14-.164.21-.245.025.013.044.019.066.027z" fill="#141820"/><path d="M14.438 34.773c.981-1.225 1.94-2.421 2.897-3.622.114-.144.267-.117.41-.128 1.945-.163 3.764-.727 5.41-1.77 3.444-2.182 5.447-5.29 5.838-9.35.538-5.583-2.83-10.785-8.148-12.664-.221-.079-.29-.147-.21-.39.339-1.048.661-2.104.97-3.161.071-.24.161-.273.388-.19 4.022 1.432 7.087 3.997 9.09 7.75 3.265 6.125 2.267 13.508-2.503 18.58-2.677 2.848-5.989 4.515-9.888 5.005a16.753 16.753 0 01-4.128-.022c-.027 0-.052-.013-.126-.038zm4.498-31.985c-.432.54-.833 1.044-1.235 1.545-.544.678-1.09 1.35-1.628 2.031a.524.524 0 01-.397.218c-5.445.512-9.83 4.292-10.972 9.625-.882 4.12.175 7.789 3.014 10.92 1.35 1.49 3.005 2.547 4.904 3.22.158.057.213.103.153.286a177.362 177.362 0 00-1.025 3.3c-.063.21-.153.194-.317.134-4.03-1.446-7.073-4.039-9.084-7.805C.824 23.408.218 20.344.595 17.14c.661-5.646 3.546-9.864 8.532-12.615 2.877-1.588 6-2.124 9.27-1.814.16.02.318.046.539.076zm86.032 24.25c-1.27 0-2.519-.002-3.77.003-.202 0-.189-.144-.224-.253-.399-1.25-.801-2.498-1.18-3.753-.066-.218-.162-.27-.375-.27-1.871.008-3.743.008-5.617 0-.205 0-.293.052-.355.25-.389 1.264-.795 2.523-1.183 3.784-.055.182-.132.242-.328.242-1.17-.01-2.342-.005-3.555-.005.167-.485.322-.943.48-1.4 1.845-5.292 3.69-10.58 5.526-15.872.082-.235.18-.314.434-.31 1.262.015 2.522.01 3.784.002.186 0 .273.043.339.231 1.986 5.703 3.978 11.406 5.969 17.106.022.076.033.155.055.245zm-8.355-14.227c-.033.063-.06.104-.073.15-.714 2.274-1.42 4.55-2.142 6.822-.074.229.021.218.185.218 1.35-.003 2.702-.006 4.052.003.221 0 .265-.033.192-.262-.668-2.091-1.32-4.186-1.979-6.28-.069-.212-.104-.438-.234-.65zm-33.104 4.116c0-.466-.003-.929 0-1.395.002-.376.013-.754.021-1.13.385-.068.774-.014 1.16-.03.048-.003.1.006.149-.003.17-.024.222.041.216.21-.013.338-.002.678-.002 1.016v11.152c0 2.566-1.52 4.385-4.066 4.84-1.544.275-3.052.185-4.467-.547-1.08-.561-1.869-1.381-2.197-2.588-.055-.199-.046-.28.197-.27.42.02.841.006 1.262.006.088 0 .17-.016.219.098.506 1.21 1.51 1.754 2.732 1.966.912.158 1.817.09 2.677-.272 1.279-.54 1.94-1.53 2.003-2.895.04-.885.008-1.773.008-2.74-.265.531-.535.975-.899 1.354-2.199 2.271-6.035 1.86-7.75-.834-.878-1.377-1.132-2.913-1.091-4.515.032-1.217.276-2.386.844-3.475 1.637-3.137 5.5-3.355 7.514-1.73.303.246.579.518.82.829.23.296.42.62.65.953zm-.085 3.84c-.003-1.03-.139-1.961-.555-2.83-.696-1.462-1.833-2.32-3.495-2.334-1.646-.014-2.808.804-3.45 2.271-.808 1.847-.808 3.742.003 5.592.615 1.4 1.732 2.2 3.29 2.25 1.532.046 2.694-.64 3.461-1.956.55-.945.732-1.988.746-2.993zm47.04-2.509c0 2.83-.003 5.66.005 8.492 0 .228-.05.3-.29.297a147.779 147.779 0 00-3.123-.003c-.207.003-.292-.027-.292-.27.008-5.69.008-11.381.003-17.07 0-.2.057-.245.251-.245 1.06.008 2.122.013 3.183-.003.235-.003.271.068.271.28-.008 2.844-.008 5.681-.008 8.522zm-40.885-1.686c.358-.594.754-1.117 1.298-1.525 1.855-1.387 4.912-1.144 6.363.517.792.907 1.102 1.994 1.107 3.17.01 2.672 0 5.34.008 8.013 0 .228-.05.313-.295.3a11.68 11.68 0 00-1.112-.004c-.2.009-.251-.054-.249-.25.008-1.196.006-2.391.006-3.587 0-1.435.032-2.87-.008-4.306-.069-2.442-1.77-3.56-4.003-3.238-1.817.262-3 1.596-3.084 3.426-.088 1.912-.02 3.827-.034 5.739-.005.648-.008 1.296.003 1.944.003.196-.032.286-.257.275-.399-.019-.8-.01-1.201-.003-.14.003-.211-.035-.192-.182.006-.05 0-.1 0-.15 0-5.64.002-11.28-.006-16.92 0-.248.034-.357.318-.333.347.03.701.025 1.049 0 .251-.019.286.08.286.3-.008 2.162-.005 4.325-.005 6.487.008.109.008.218.008.327zm-32.474 1.654c0-2.822.003-5.64-.005-8.462 0-.248.054-.322.306-.305.38.024.76.016 1.142.002.18-.005.243.036.237.23-.013.506-.005 1.015-.005 1.524 0 4.655.003 9.31-.008 13.963 0 .275.074.335.341.335 2.703-.01 5.407-.005 8.11-.005.387 0 .387 0 .387.403 0 .259-.027.52.006.776.04.322-.093.37-.38.365-1.06-.016-2.123-.005-3.183-.005-2.191 0-4.385-.009-6.576.008-.328.003-.38-.098-.377-.392.008-2.816.005-5.627.005-8.438zm44.64 1.977c0-1.405-.005-2.81.006-4.216.002-.223-.053-.286-.279-.275-.459.02-.92 0-1.382.008-.175.003-.255-.03-.244-.226a9.565 9.565 0 000-.926c-.005-.158.047-.204.202-.201.49.008.981-.008 1.473.008.194.005.227-.057.227-.234-.008-.896.003-1.795-.01-2.691-.004-.215.059-.264.263-.256.381.016.763.016 1.143 0 .194-.008.23.054.227.234-.009.896.002 1.795-.011 2.69-.003.216.06.262.265.257.669-.014 1.34.003 2.01-.01.2-.004.26.053.246.247-.016.267-.019.54 0 .806.016.226-.043.31-.29.302-.668-.019-1.34 0-2.01-.01-.164-.003-.221.035-.219.21.006 2.649.003 5.302.006 7.952 0 .247.027.498.09.738.175.661.59 1.015 1.276 1.056.34.02.68.006 1.02-.008.14-.005.193.027.188.177-.011.338-.006.678-.003 1.016 0 .106 0 .185-.148.199-.688.065-1.38.103-2.063-.03-1.15-.226-1.767-.926-1.923-2.135a7.895 7.895 0 01-.065-1.013c.008-1.218.005-2.443.005-3.669zm-31.955.479c0-2.013.002-4.025-.006-6.04 0-.221.05-.292.279-.281.368.022.74.016 1.112 0 .207-.008.27.046.268.258-.011 1.106-.006 2.212-.006 3.32 0 2.93-.003 5.861.006 8.792 0 .245-.055.33-.309.316a9.576 9.576 0 00-1.082 0c-.21.01-.268-.055-.268-.265.008-2.034.005-4.068.005-6.1zm1.915-9.946a1.081 1.081 0 01-1.07 1.092 1.083 1.083 0 01-1.099-1.065 1.074 1.074 0 011.073-1.087 1.066 1.066 0 011.096 1.06z" fill="#141820"/></svg>