<svg width="130" height="37" fill="none" xmlns="http://www.w3.org/2000/svg"><path d="M19.707.97c.393.13.808.113 1.209.173a17.9 17.9 0 018.167 3.386c.133.1.147.157.036.289a473.98 473.98 0 00-3.205 3.78c-.12.144-.184.14-.328.038a12.217 12.217 0 00-5.453-2.193c-2.447-.348-4.817-.04-7.044 1.035-4.01 1.939-6.418 5.123-7.122 9.505-.821 5.112 1.836 10.362 6.502 12.744 4.489 2.292 8.88 1.965 13.079-.816.184-.121.255-.11.393.054a419.856 419.856 0 003.164 3.738c.13.15.09.21-.049.313-2.11 1.569-4.454 2.644-7.033 3.165-3.89.788-7.677.418-11.256-1.302C5.425 32.31 2.107 28.1.82 22.32a17.202 17.202 0 01-.29-1.93c-.005-.052.025-.125-.062-.144V17.28c.084-.021.054-.091.063-.143.057-.421.1-.842.17-1.26.626-3.776 2.303-7.025 5.02-9.72 2.818-2.792 6.218-4.466 10.162-5.028.344-.049.702-.022 1.03-.157C17.84.97 18.774.97 19.706.97zm100.84 21.417c-2.731 0-5.462.005-8.193-.006-.287 0-.317.062-.252.327.737 3.04 3.083 5.045 6.223 5.312 1.035.089 2.059.065 3.075-.17 1.557-.362 2.79-1.191 3.676-2.52.112-.165.185-.2.363-.094a128.5 128.5 0 002.582 1.46c.187.103.201.168.079.346-1.675 2.458-4.002 3.854-6.949 4.237-2.189.284-4.353.173-6.399-.7-3.538-1.511-5.632-4.196-6.209-7.99-.347-2.29-.152-4.545.888-6.648 1.574-3.184 4.121-5.112 7.67-5.66 1.869-.29 3.722-.211 5.513.442 2.44.892 4.147 2.606 5.334 4.859 1.078 2.047 1.37 4.242 1.14 6.524-.021.205-.084.291-.322.291-2.739-.013-5.48-.01-8.219-.01zm5.028-3.084c-.041-.222-.071-.413-.114-.605-.33-1.472-.961-2.776-2.165-3.745-2.021-1.629-4.318-1.858-6.708-1.118-2.489.772-3.903 2.576-4.472 5.073-.089.392-.081.395.311.395h13.148zm-66.654 5.09c.915.53 1.806 1.043 2.698 1.555.33.192.333.195.125.535-1.444 2.35-3.511 3.908-6.188 4.564-3.264.797-6.377.392-9.14-1.623-2.563-1.866-3.99-4.407-4.259-7.575-.173-2.066.063-4.075 1.027-5.927 1.633-3.14 4.19-5.09 7.737-5.644 2.173-.34 4.291-.143 6.31.783 1.912.878 3.399 2.22 4.405 4.078.116.218.127.326-.122.464-.843.457-1.672.943-2.498 1.426-.165.097-.23.084-.328-.092-1.178-2.109-3.026-3.176-5.407-3.327-2.696-.172-4.866.84-6.413 3.057-1.094 1.566-1.392 3.338-1.124 5.196.374 2.614 1.799 4.528 4.245 5.495 2.788 1.102 5.43.694 7.718-1.345.502-.453.883-1.01 1.214-1.62zm38.448-.003c.97.56 1.922 1.119 2.887 1.667.174.1.076.178.022.276-.896 1.577-2.156 2.79-3.727 3.691-2.019 1.159-4.2 1.542-6.503 1.32-3.703-.359-6.44-2.211-8.254-5.411-1.022-1.801-1.327-3.78-1.224-5.83.127-2.536 1.01-4.764 2.755-6.635 1.975-2.115 4.423-3.192 7.317-3.32 2.359-.102 4.543.409 6.507 1.743a8.934 8.934 0 012.969 3.332c.087.167.079.24-.095.337-.864.481-1.72.975-2.576 1.472-.146.084-.208.095-.307-.078-1.242-2.214-3.188-3.287-5.694-3.354-2.901-.081-5.13 1.15-6.499 3.686-1.948 3.61-.656 8.75 3.959 10.251 2.616.85 5.076.4 7.184-1.47.53-.472.937-1.044 1.279-1.676z" fill="#141820"/><path d="M36.221 18.774c-.076 5.058-1.92 9.362-5.564 12.9-.15.146-.223.17-.377-.016a318.12 318.12 0 00-3.162-3.738c-.121-.143-.108-.205.022-.337 2.812-2.887 4.058-6.325 3.598-10.332-.328-2.857-1.582-5.282-3.609-7.316-.114-.113-.135-.167-.024-.3a471.569 471.569 0 003.202-3.78c.133-.16.206-.14.339-.01 3.107 3.002 4.952 6.629 5.459 10.92.075.661.121 1.331.116 2.009zm66.005-2.682c0-4.793.003-9.586-.008-14.38 0-.294.081-.348.358-.343.972.02 1.945.017 2.92 0 .257-.005.303.076.303.314-.005 8.906-.005 17.81-.005 26.715 0 .74-.006 1.483.003 2.223.002.186-.036.253-.241.25a148.21 148.21 0 00-3.099 0c-.212.003-.236-.075-.234-.253.008-.85.003-1.701.003-2.55V16.093zm-27.585-2.195c.412-.708.862-1.375 1.46-1.931 1.09-1.01 2.411-1.48 3.869-1.626.266-.027.534-.03.802-.054.163-.013.2.051.198.203a333.917 333.917 0 000 3.289c0 .165-.032.202-.217.2-1.845-.02-3.484.51-4.765 1.885-.83.888-1.149 2.003-1.287 3.183a12.87 12.87 0 00-.062 1.48c.002 3.349-.003 6.7.008 10.049 0 .25-.065.305-.31.3-.99-.017-1.985-.012-2.977-.003-.194.002-.27-.033-.27-.254.005-6.57.005-13.14 0-19.71 0-.2.043-.27.26-.268 1.02.01 2.045.01 3.066 0 .19-.003.23.057.228.232-.008 1.008-.003 2.017-.003 3.025zm-7.297 6.859c0 3.27-.003 6.54.005 9.814 0 .248-.068.307-.311.305a137.096 137.096 0 00-3.008-.003c-.19.003-.249-.04-.249-.24.006-6.581.006-13.162 0-19.743 0-.227.084-.251.277-.249.983.008 1.966.014 2.947-.002.266-.006.347.056.344.334-.01 3.263-.005 6.522-.005 9.784zM63.186 4.659c-.008-1.323 1.024-2.35 2.313-2.406 1.33-.06 2.46 1.118 2.447 2.365-.013 1.326-1.016 2.363-2.333 2.371-1.384.008-2.422-.988-2.427-2.33z" fill="#141820"/></svg>