<svg width="144" height="37" fill="none" xmlns="http://www.w3.org/2000/svg"><path d="M.252 12.547c.155-.395.152-.819.228-1.227.902-4.894 4.932-9.011 9.846-10.046A13.49 13.49 0 0113.16.977c3.407.008 6.813-.027 10.22.01 3.336.038 6.228 1.246 8.645 3.526 2.122 2.002 3.393 4.463 3.854 7.334.103.635.143 1.275.143 1.918-.002 3.41.025 6.821-.013 10.23-.038 3.32-1.25 6.197-3.54 8.607-2.01 2.113-4.485 3.372-7.368 3.842-.274.045-.561.016-.824.132H11.878c-.018-.084-.092-.057-.143-.062-.472-.06-.94-.135-1.407-.233-4.91-1.034-8.94-5.154-9.843-10.046-.075-.408-.073-.832-.227-1.226-.006-4.155-.006-8.307-.006-12.462zm11.673-4.598v.386c0 4.115-.003 8.226.008 12.34 0 .279-.076.327-.33.295a4.393 4.393 0 00-1.48.068c-1.003.21-1.909.607-2.564 1.431-.857 1.08-.643 2.585.471 3.334.472.316 1.006.462 1.558.543 1.247.186 2.442.078 3.486-.705 1.103-.83 1.758-1.875 1.734-3.32-.04-2.332-.01-4.666-.01-7v-.283c.102.016.137.07.184.118 1.203 1.246 2.411 2.491 3.615 3.736.298.309.292.311.588.017 1.25-1.246 2.501-2.488 3.753-3.73.068-.068.12-.182.252-.177v.192c0 4.795.003 9.59-.005 14.385 0 .24.046.316.3.311a60.12 60.12 0 012.326-.003c.2.003.265-.038.265-.254-.005-7.129-.005-14.258-.008-21.384 0-.068.05-.16-.06-.21-2.303 2.293-4.606 4.586-6.904 6.885-.144.143-.215.162-.364.008-.97-1.005-1.948-2.002-2.924-2.998-1.279-1.313-2.56-2.623-3.891-3.985zm33.877 7.78c.122.005.117-.076.141-.12.99-1.75 2.483-2.657 4.504-2.695.89-.016 1.764.067 2.604.378 1.125.416 1.93 1.18 2.453 2.248.03.062.057.124.09.186.008.014.032.022.062.04.377-.629.821-1.204 1.396-1.669 1.016-.818 2.206-1.134 3.482-1.175 1-.033 1.981.07 2.902.502 1.583.74 2.405 2.056 2.794 3.69.193.811.274 1.635.274 2.467 0 3.055-.002 6.11.009 9.166 0 .278-.079.34-.345.335a120.677 120.677 0 00-3.279 0c-.263.002-.347-.052-.347-.332.011-2.848.006-5.695.008-8.542 0-.505-.032-1.008-.14-1.502-.383-1.724-1.543-2.372-3.166-2.205-1.515.157-2.512 1.146-2.846 2.718a7.746 7.746 0 00-.146 1.559c-.003 2.66-.005 5.319.006 7.98 0 .262-.063.33-.326.324a103.984 103.984 0 00-3.309 0c-.287.005-.333-.09-.333-.346.008-3.015.005-6.032.005-9.047 0-.467-.046-.924-.17-1.378-.298-1.094-.984-1.726-2.139-1.82-1.517-.122-2.796.402-3.506 1.769-.334.643-.461 1.34-.464 2.061-.002 2.807-.005 5.616.006 8.423 0 .276-.076.34-.344.338a127.362 127.362 0 00-3.37 0c-.227.002-.276-.065-.276-.284.006-5.073.006-10.144.003-15.217 0-.189.022-.278.25-.275 1.092.013 2.184.01 3.279 0 .208-.003.238.073.235.25-.01.633-.002 1.265-.002 1.9.005.092.005.184.005.273zm93.918 11.195c-.338.35-.61.724-.948 1.042-1.03.968-2.293 1.383-3.672 1.475-1.369.092-2.697-.11-3.908-.788-1.493-.835-2.345-2.083-2.38-3.828-.038-1.848.711-3.266 2.312-4.215 1.084-.64 2.285-.929 3.515-1.12 1.585-.25 3.182-.252 4.781-.233.246.003.303-.057.308-.305.035-1.94-1.23-2.807-2.853-3.015-1.816-.235-3.434.265-4.822 1.461-.124.109-.181.103-.297-.016-.553-.567-1.119-1.123-1.68-1.683-.264-.262-.264-.262.018-.524 1.131-1.053 2.477-1.68 3.984-1.993 1.724-.36 3.447-.422 5.149.072 2.477.722 3.626 2.245 3.965 4.801.084.63.087 1.262.087 1.894.003 2.936-.003 5.87.008 8.806 0 .27-.076.324-.331.322a99.54 99.54 0 00-2.978 0c-.215.002-.263-.062-.261-.265.011-.63.003-1.259.003-1.888zm-1.471-4.914c-.735.019-1.469.048-2.195.151-.927.132-1.83.349-2.607.91-.445.32-.659.754-.678 1.286-.032.897.545 1.635 1.52 1.95.746.241 1.507.225 2.266.114 1.255-.183 2.206-.786 2.68-2.007.285-.735.263-1.507.261-2.28 0-.143-.087-.127-.176-.127-.358.003-.714.003-1.071.003zm-56.815 4.579a7.243 7.243 0 01-1.438 1.756c-.76.667-1.659.994-2.651 1.077-1.333.111-2.64.017-3.84-.65-1.393-.773-2.155-1.994-2.496-3.51a9.399 9.399 0 01-.214-2.058c0-3.193.002-6.386-.008-9.582 0-.268.07-.324.328-.319 1.103.016 2.206.014 3.309 0 .257-.003.343.043.343.327a891.09 891.09 0 00-.002 8.01c.002.77.046 1.54.287 2.282.586 1.802 1.751 2.107 3.201 1.948 1.466-.162 2.724-1.245 2.946-3.225a8.8 8.8 0 00.048-1.065c-.002-2.66 0-5.319-.005-7.98 0-.218.035-.3.282-.297 1.133.016 2.266.016 3.398 0 .247-.003.282.079.282.297a7689.18 7689.18 0 000 15.188c0 .237-.068.291-.295.289a157.101 157.101 0 00-3.22 0c-.209.002-.266-.055-.26-.262.013-.743.005-1.484.005-2.226zm11.795-.683h.387c2.742 0 5.482.002 8.225-.006.241 0 .323.046.317.303a87.34 87.34 0 00-.003 2.61c.003.207-.056.261-.266.261-4.371-.005-8.74-.005-13.11 0-.22 0-.255-.075-.253-.267.008-1.059.008-2.115 0-3.174a.52.52 0 01.163-.386c2.723-2.861 5.442-5.727 8.16-8.594.038-.04.097-.07.097-.145-.094-.073-.205-.033-.308-.033-2.464-.003-4.927-.008-7.391.005-.273.003-.32-.078-.314-.326.016-.87.014-1.74 0-2.61-.003-.2.06-.24.249-.24 4.112.005 8.225.005 12.337 0 .184 0 .251.032.249.237a209.896 209.896 0 00-.003 3.174.444.444 0 01-.143.333c-2.78 2.93-5.559 5.865-8.393 8.858zm20.028-4.746c.059-3.089 1.27-5.59 4.04-7.095 2.884-1.566 5.851-1.615 8.767.02.504.283.933.666 1.342 1.072.114.11.135.178.011.302a356.6 356.6 0 00-2.467 2.453c-.122.124-.184.108-.295-.008-.585-.589-1.23-1.11-2.049-1.318-1.238-.314-2.392-.035-3.417.68-1.52 1.062-2.117 2.586-1.962 4.38.157 1.823 1.076 3.182 2.796 3.911 1.513.64 3.497.48 4.727-.989.106-.127.157-.121.266-.002a221.63 221.63 0 002.393 2.56c.124.13.059.19-.041.279-1.008.913-2.206 1.472-3.515 1.772-3.141.716-5.962.078-8.301-2.177-1.468-1.416-2.184-3.215-2.293-5.25-.011-.194-.002-.394-.002-.59zm-3.747.04c0 2.52-.005 5.04.008 7.561.003.276-.081.319-.33.314a151.07 151.07 0 00-3.366 0c-.222.002-.282-.054-.282-.279.006-5.07.006-10.143 0-15.214 0-.216.046-.284.277-.28 1.141.013 2.284.013 3.425 0 .225-.004.274.056.274.275-.009 2.542-.006 5.084-.006 7.623zm.548-13.21c-.003 1.347-1.095 2.355-2.556 2.355-1.409-.003-2.512-1.048-2.515-2.38 0-1.28 1.122-2.412 2.583-2.366 1.425.043 2.488 1.026 2.488 2.39z" fill="#141820"/></svg>